<svg version="1.1" id="Layer_1" xmlns="http://www.w3.org/2000/svg" xmlns:xlink="http://www.w3.org/1999/xlink" x="0px" y="0px"
	 width="100%" viewBox="0 0 800 512" enable-background="new 0 0 800 512" xml:space="preserve">
<path fill="#000000" opacity="1.000000" stroke="none" 
	d="
M240.253784,338.900085 
	C233.372955,340.570557 229.109818,336.322144 225.785950,332.258484 
	C207.981079,310.490814 192.275009,287.424957 185.420990,259.563873 
	C180.053757,237.746353 189.993515,220.902328 211.558319,214.682831 
	C228.963882,209.662903 246.332886,209.777283 263.675140,214.923767 
	C281.455353,220.200211 292.474548,233.745773 290.483063,252.323975 
	C289.471405,261.761566 286.869659,270.660187 282.915375,279.068695 
	C274.175110,297.654175 263.850281,315.317810 250.205093,330.850067 
	C247.425964,334.013519 244.315216,336.718597 240.253784,338.900085 
M237.317841,254.663177 
	C241.939163,254.158936 246.562164,253.669434 251.181000,253.143341 
	C253.087860,252.926178 255.156982,252.666901 255.203491,255.375580 
	C255.319138,262.110779 255.241531,268.849335 255.241531,275.679382 
	C250.482666,275.484924 246.461151,274.388519 242.771744,276.801544 
	C238.879608,279.347137 238.602768,282.836121 242.257935,285.697205 
	C245.745255,288.426910 249.711105,288.349854 253.616638,286.932678 
	C257.580688,285.494232 258.104279,282.080475 258.108002,278.346283 
	C258.117493,268.875336 258.195312,259.402466 258.422577,249.934616 
	C258.524139,245.704453 257.052704,243.742630 252.569962,244.340424 
	C246.148926,245.196671 239.686829,245.740814 233.257721,246.542160 
	C226.213730,247.420105 226.212418,247.481430 226.120880,254.843338 
	C226.083633,257.838623 226.139908,260.835541 226.073685,263.829926 
	C225.964859,268.749634 226.500687,273.712585 225.636719,278.851562 
	C221.252640,278.555786 217.254974,277.466064 213.575027,279.809326 
	C210.016769,282.075073 209.182114,285.389526 211.791733,288.095551 
	C215.262070,291.694092 219.622101,291.446259 223.892166,290.177277 
	C227.618011,289.070007 228.741943,286.033661 228.700653,282.339508 
	C228.628128,275.849548 228.693710,269.358093 228.704666,262.867249 
	C228.717453,255.290710 228.718948,255.290710 237.317841,254.663177 
z"/>
<path fill="#000000" opacity="1.000000" stroke="none" 
	d="
M348.589844,293.632416 
	C351.928711,288.748596 351.407166,286.133362 346.741882,283.801483 
	C342.992157,281.927216 338.848145,281.227875 334.793579,280.329193 
	C332.016449,279.713684 329.369904,278.832886 326.775970,277.644043 
	C320.400208,274.721985 316.692871,269.885834 316.790497,262.858429 
	C316.890503,255.661438 320.845459,250.640518 327.317596,247.780151 
	C336.281525,243.818542 345.194611,244.619293 353.811371,248.909912 
	C358.434418,251.211899 360.858307,255.343292 362.054291,260.260010 
	C362.774170,263.219421 361.631592,264.771973 358.590302,264.797272 
	C354.256622,264.833313 349.848969,266.067657 347.560669,260.027954 
	C345.843933,255.496826 335.656525,254.694351 331.969849,258.098328 
	C328.861847,260.967987 329.732361,265.100861 334.104492,266.621216 
	C340.384979,268.805176 346.912842,270.296204 353.143066,272.602020 
	C363.028290,276.260529 366.912201,285.493866 362.906189,294.791077 
	C361.099762,298.983429 358.047211,302.031708 353.919525,303.745087 
	C344.049561,307.842010 334.136322,307.960022 324.544403,302.914368 
	C319.417755,300.217560 316.382294,295.754639 315.118469,290.039886 
	C314.436615,286.956757 315.063690,285.183197 318.583984,285.136627 
	C323.154541,285.076141 327.337097,284.210938 329.591461,290.502228 
	C331.644409,296.231232 340.532867,297.245605 348.589844,293.632416 
z"/>
<path fill="#000000" opacity="1.000000" stroke="none" 
	d="
M530.486511,277.891235 
	C532.043884,283.480927 531.373535,288.593842 529.760742,293.536743 
	C525.714966,305.935760 514.114197,309.764099 501.182312,302.929016 
	C498.107605,306.892273 493.793457,305.259827 489.844757,304.980011 
	C488.094177,304.856018 487.963104,302.844116 487.960266,301.338196 
	C487.928528,284.530518 487.963379,267.722626 487.904114,250.915085 
	C487.884491,245.351028 491.937622,246.892227 494.994232,246.664871 
	C498.120789,246.432343 500.594177,246.801071 500.384491,251.020477 
	C500.147278,255.793427 500.329803,260.587219 500.329803,266.137817 
	C507.261688,261.457611 514.017944,259.992706 521.042053,263.566467 
	C526.634705,266.411926 529.527771,271.322205 530.486511,277.891235 
M516.813477,292.118042 
	C519.420837,287.046356 519.345642,281.831024 517.314209,276.664185 
	C515.908447,273.088776 513.149658,271.195679 509.162201,271.243561 
	C505.336884,271.289459 502.948761,273.279053 501.552368,276.653748 
	C499.902039,280.642212 499.891632,284.806183 500.789246,288.911377 
	C501.573303,292.497406 503.579987,295.506287 507.311340,296.454681 
	C511.043762,297.403351 514.176880,295.961914 516.813477,292.118042 
z"/>
<path fill="#000000" opacity="1.000000" stroke="none" 
	d="
M587.128418,267.210724 
	C596.545654,259.891327 606.487427,260.259705 616.625854,264.150055 
	C620.141968,265.499268 622.071106,268.640137 622.237061,272.379303 
	C622.480225,277.861359 622.378723,283.361084 622.337341,288.852631 
	C622.297546,294.130554 622.324219,299.400970 623.595093,305.194061 
	C618.537537,304.843750 613.873901,307.049255 609.780884,302.794067 
	C605.210571,305.589722 600.106201,306.681213 594.680725,306.301483 
	C588.121704,305.842377 583.548157,302.051392 582.687927,296.338623 
	C581.526001,288.622742 584.238098,284.256836 591.187134,281.459198 
	C596.109680,279.477448 601.410828,280.261230 606.339661,278.701080 
	C608.028381,278.166504 609.411560,277.386566 609.657288,275.435272 
	C609.881897,273.650604 609.403076,272.151062 607.849487,271.088959 
	C605.205872,269.281555 598.726990,269.850372 597.442505,272.648376 
	C594.728699,278.559998 589.863892,275.929108 585.776611,276.114075 
	C583.714722,276.207367 583.566223,274.288452 584.158203,272.788696 
	C584.883484,270.951111 585.953857,269.249756 587.128418,267.210724 
M609.410767,292.623108 
	C609.305664,290.423492 611.411621,286.935516 607.558289,286.680756 
	C604.420837,286.473267 600.928101,286.867554 597.889465,288.441467 
	C595.698975,289.576019 594.861694,291.417603 595.201294,293.811615 
	C595.569458,296.407593 597.359802,297.424194 599.718689,297.604858 
	C603.605225,297.902435 606.960388,296.923737 609.410767,292.623108 
z"/>
<path fill="#000000" opacity="1.000000" stroke="none" 
	d="
M536.587524,277.083374 
	C540.555481,265.978577 548.666565,260.720306 559.744141,261.723145 
	C569.663940,262.621155 576.233826,269.342682 578.056763,280.458466 
	C578.997620,286.195435 578.119751,287.284180 572.353760,287.313995 
	C565.695618,287.348419 559.036255,287.249298 552.379272,287.343170 
	C548.272095,287.401093 547.432007,289.120880 549.611450,292.600403 
	C552.482849,297.184662 559.303650,298.058075 564.153442,294.462524 
	C568.539307,291.210785 570.663513,290.873016 576.451904,292.507080 
	C574.922424,302.341583 564.589417,308.306519 553.032227,306.026581 
	C539.881531,303.432312 533.014832,291.583740 536.587524,277.083374 
M553.862305,278.820282 
	C557.554993,278.607941 561.336487,279.345795 565.165955,278.187195 
	C564.148621,273.080017 561.251465,271.202423 556.640259,271.252411 
	C552.173157,271.300873 549.606628,273.367767 548.733826,277.602295 
	C549.976501,279.249634 551.589294,278.634460 553.862305,278.820282 
z"/>
<path fill="#000000" opacity="1.000000" stroke="none" 
	d="
M390.914795,261.667023 
	C403.554138,262.550293 411.296021,269.271057 412.305359,279.846771 
	C413.621979,293.641968 408.190491,303.030701 396.638062,305.675873 
	C388.337433,307.576508 380.134552,306.796753 374.210785,299.723816 
	C367.617035,291.850891 366.750580,282.699188 370.782501,273.480804 
	C374.419067,265.166351 381.442963,261.512665 390.914795,261.667023 
M394.966827,295.662933 
	C400.523743,291.164581 402.088074,280.747803 398.075745,274.960602 
	C394.163605,269.318024 385.517883,269.945770 382.445587,276.095825 
	C380.812012,279.365845 381.101685,282.878845 381.262390,286.339905 
	C381.631134,294.283112 386.361450,297.740417 394.966827,295.662933 
z"/>
<path fill="#000000" opacity="1.000000" stroke="none" 
	d="
M419.076172,286.682251 
	C419.067505,279.883698 419.206268,273.549652 419.025543,267.224792 
	C418.871338,261.828125 422.559204,262.762085 425.827789,262.632599 
	C429.180573,262.499725 431.624908,262.809875 431.446808,267.298950 
	C431.176392,274.115662 431.105988,280.976715 431.571198,287.776459 
	C432.085968,295.299866 437.309235,298.577850 442.798065,295.299896 
	C445.630890,293.608124 446.686768,290.898438 446.703217,287.679413 
	C446.738098,280.850006 446.972229,274.017426 446.825989,267.192535 
	C446.698486,261.240814 450.937134,262.982330 454.122101,262.646698 
	C457.857819,262.253113 459.508789,263.509827 459.421204,267.607513 
	C459.189819,278.430511 459.386749,289.261993 459.307465,300.089355 
	C459.291840,302.215515 460.140076,305.478607 456.443420,305.177399 
	C453.184296,304.911896 448.368866,307.795959 447.209869,301.155090 
	C443.264801,304.788635 438.872375,306.587280 433.612183,306.361267 
	C425.296936,306.003967 420.388672,301.497833 419.648804,293.116455 
	C419.473206,291.126770 419.273590,289.139252 419.076172,286.682251 
z"/>
<path fill="#000000" opacity="1.000000" stroke="none" 
	d="
M626.752808,265.157928 
	C627.131042,264.162659 627.499084,263.126923 627.792419,263.147644 
	C634.863342,263.647034 633.846130,258.623199 633.610779,254.443222 
	C633.328125,249.422379 636.642395,249.812805 639.878235,249.829422 
	C643.078918,249.845856 646.587341,249.364853 646.257019,254.371475 
	C646.169617,255.696945 646.349854,257.039825 646.266663,258.365906 
	C646.090210,261.175446 646.975464,262.934509 650.159424,262.660583 
	C653.032837,262.413361 654.413574,263.490356 654.375305,266.617950 
	C654.338928,269.586700 653.695618,271.560425 650.249756,271.282440 
	C647.165039,271.033630 646.170471,272.588257 646.237488,275.487823 
	C646.356750,280.647461 646.333618,285.812866 646.248962,290.973846 
	C646.198853,294.030060 647.370728,295.760223 650.592773,295.670502 
	C655.727539,295.527588 654.057312,299.371887 654.296143,302.038696 
	C654.594055,305.365570 652.335754,305.903778 649.792114,305.818512 
	C647.133606,305.729462 644.457886,305.596497 641.832336,305.200134 
	C636.577393,304.406830 633.813538,301.146851 633.698059,295.490417 
	C633.565491,288.998383 633.570007,282.500214 633.687073,276.007812 
	C633.739746,273.090179 633.200684,271.246460 629.695862,271.204315 
	C625.711426,271.156464 626.921143,267.907898 626.752808,265.157928 
z"/>
<path fill="#000000" opacity="1.000000" stroke="none" 
	d="
M480.121155,301.737579 
	C478.369720,307.899536 473.763977,304.902191 470.473267,305.115936 
	C466.922638,305.346588 467.698578,302.038513 467.689880,299.893341 
	C467.624908,283.909027 467.822174,267.921539 467.553864,251.941467 
	C467.473297,247.143555 469.617798,246.455872 473.563843,246.584946 
	C477.259583,246.705872 480.391357,246.328430 480.296783,251.814255 
	C480.012726,268.293610 480.167572,284.780518 480.121155,301.737579 
z"/>
</svg>